<?xml version="1.0" encoding="UTF-8"?>
<svg xmlns="http://www.w3.org/2000/svg" width="193" height="31" viewBox="0 0 193 31" fill="none">
  <g clip-path="url(#clip0_1607_14201)">
    <path d="M26.2979 7.81872V6.22949H37.5732V7.81872H32.8365V23.9778H31.0153V7.81872H26.3017H26.2979Z" fill="#1D1D1B"></path>
    <path d="M36.4326 11.2251H38.219V18.104C38.219 19.6662 38.4781 20.8107 39.0079 21.5377C39.5376 22.2646 40.4115 22.6203 41.6527 22.6319C44.0539 22.6319 45.0516 21.1549 45.0516 18.104V11.2251H46.8496V23.9776H45.3338L45.0516 22.3883C44.4097 23.386 43.1569 24.2212 41.297 24.2212C37.8865 24.2096 36.4365 22.253 36.4365 18.104V11.2251H36.4326Z" fill="#1D1D1B"></path>
    <path d="M49.7148 23.9774V11.2249H51.2422L51.5012 12.8141C51.8338 12.3578 52.2784 11.9402 52.843 11.5458C53.3959 11.163 54.0494 10.9658 54.7764 10.9658C55.194 10.9658 55.5381 11.0006 55.8088 11.0896V12.787H54.8962C52.495 12.787 51.4974 14.1791 51.4974 17.1449V23.9774H49.7109H49.7148Z" fill="#1D1D1B"></path>
    <path d="M59.0448 18.255C59.068 19.3377 59.5745 20.6678 60.7306 21.592C61.4692 22.1952 62.6756 22.6128 64.0676 22.6128C65.6298 22.6128 67.0334 22.1449 67.9692 21.0506C68.4254 20.4977 68.6574 19.8442 68.6574 19.094C68.6574 18.0616 68.2398 17.2342 67.6869 16.7663C67.4046 16.5343 67.0605 16.3371 66.6274 16.1747C65.7767 15.8537 65.0884 15.7455 64.0676 15.6565C62.7993 15.5444 61.8404 15.3743 60.6688 14.918C60.0888 14.686 59.5977 14.4153 59.2033 14.0828C58.4029 13.4293 57.8113 12.3118 57.8113 10.8966C57.8113 9.22229 58.6117 7.88054 59.8065 7.13039C60.9897 6.38025 62.4049 5.98584 63.8666 5.98584C65.3282 5.98584 66.6854 6.40345 67.7913 7.18066C68.901 7.96947 69.6628 9.27256 69.8097 10.8502L68.0504 11.1827C67.9382 9.9879 67.4974 9.09082 66.7202 8.48761C65.943 7.896 64.9956 7.60213 63.8666 7.60213C61.8249 7.60213 59.5706 8.58815 59.5706 10.9005C59.5706 12.6985 61.0864 13.7425 64.114 14.0518C65.1 14.1485 65.5911 14.2104 66.5617 14.4462C67.4974 14.6782 68.1006 14.9489 68.816 15.4555C69.5313 15.9581 69.9373 16.5884 70.2312 17.5242C70.3665 18.0036 70.44 18.5218 70.44 19.0979C70.44 20.1187 70.1577 21.0313 69.5893 21.8162C69.0093 22.605 68.2476 23.2082 67.2886 23.6143C66.3297 24.0203 65.2586 24.2291 64.0638 24.2291C62.2309 24.2291 60.6533 23.7264 59.6325 22.9724C59.1144 22.6012 58.6851 22.172 58.3294 21.6693C57.6295 20.6833 57.3202 19.6393 57.3086 18.5914L59.0448 18.2588V18.255Z" fill="#1D1D1B"></path>
    <path d="M72.5859 23.9774V11.2249H74.1249L74.3724 12.8142C74.9524 11.7933 76.2439 10.9697 78.0767 10.9697C81.5219 10.9813 82.9874 12.965 82.9874 17.0985V23.9774H81.201V17.0985C81.201 13.9587 80.2421 12.5706 77.7674 12.5551C75.3932 12.5551 74.3724 14.0438 74.3724 17.0985V23.9774H72.5859Z" fill="#1D1D1B"></path>
    <path d="M86.3634 12.7754C87.3726 11.569 88.7647 10.9658 90.524 10.9658C92.2834 10.9658 93.6638 11.569 94.6846 12.787C95.6938 14.0051 96.2004 15.6059 96.2004 17.6011C96.2004 19.5964 95.6977 21.1933 94.6846 22.3997C93.6638 23.6178 92.2834 24.221 90.524 24.221C88.7647 24.221 87.3726 23.6178 86.3634 22.3997C85.3542 21.1933 84.8477 19.5925 84.8477 17.6011C84.8477 15.6098 85.3503 13.9819 86.3634 12.7754ZM87.7168 21.2939C88.3935 22.218 89.3292 22.6704 90.524 22.6704C91.7188 22.6704 92.6662 22.2141 93.3545 21.2939C94.0311 20.3697 94.3753 19.1401 94.3753 17.6011C94.3753 16.0622 94.0311 14.8325 93.3545 13.9084C92.6662 12.9843 91.7188 12.528 90.524 12.528C89.3292 12.528 88.3935 12.9843 87.7168 13.9084C87.0401 14.8325 86.696 16.0622 86.696 17.6011C86.696 19.1401 87.0401 20.3697 87.7168 21.2939Z" fill="#1D1D1B"></path>
    <path d="M97.1357 11.2251H98.9338L100.867 21.4758L103.918 11.2251H106.083L109.37 21.4758L111.412 11.2251H113.198L110.379 23.9776H108.434L105.001 13.4175L101.776 23.9776H99.8308L97.1357 11.2251Z" fill="#1D1D1B"></path>
    <path d="M114.935 23.9778V6.22949H116.721V13.0852C116.968 12.6908 117.374 12.2848 118.04 11.7937C118.705 11.3142 119.714 10.9701 120.785 10.9701C122.448 10.9701 123.778 11.5733 124.76 12.7913C125.73 14.0093 126.225 15.6218 126.225 17.6054C126.225 19.589 125.723 21.1512 124.698 22.3808C123.677 23.6104 122.37 24.2252 120.785 24.2252C119.714 24.2252 118.705 23.8811 118.04 23.3746C117.374 22.8835 116.968 22.4775 116.721 22.0831L116.474 23.9778H114.935ZM117.692 21.3059C118.333 22.2184 119.254 22.6708 120.449 22.6708C121.643 22.6708 122.614 22.2029 123.329 21.2788C124.029 20.3546 124.389 19.1366 124.389 17.5977C124.389 16.0587 124.033 14.8407 123.329 13.9165C122.614 12.9924 121.655 12.5245 120.449 12.5245C119.242 12.5245 118.333 12.9808 117.692 13.8895C117.038 14.8136 116.721 16.0432 116.721 17.5938C116.721 19.1444 117.042 20.3856 117.692 21.2981V21.3059Z" fill="#1D1D1B"></path>
    <path d="M129.117 12.7754C130.127 11.569 131.519 10.9658 133.278 10.9658C135.037 10.9658 136.418 11.569 137.439 12.787C138.448 14.0051 138.954 15.6059 138.954 17.6011C138.954 19.5964 138.452 21.1933 137.439 22.3997C136.418 23.6178 135.037 24.221 133.278 24.221C131.519 24.221 130.127 23.6178 129.117 22.3997C128.108 21.1933 127.602 19.5925 127.602 17.6011C127.602 15.6098 128.104 13.9819 129.117 12.7754ZM130.471 21.2939C131.147 22.218 132.083 22.6704 133.278 22.6704C134.473 22.6704 135.42 22.2141 136.108 21.2939C136.785 20.3697 137.129 19.1401 137.129 17.6011C137.129 16.0622 136.785 14.8325 136.108 13.9084C135.42 12.9843 134.473 12.528 133.278 12.528C132.083 12.528 131.147 12.9843 130.471 13.9084C129.794 14.8325 129.45 16.0622 129.45 17.6011C129.45 19.1401 129.794 20.3697 130.471 21.2939Z" fill="#1D1D1B"></path>
    <path d="M145.513 16.7659H149.268V15.5092C149.268 14.9292 149.229 14.5232 148.958 13.9471C148.823 13.6648 148.637 13.4173 148.405 13.2317C147.949 12.8489 147.064 12.555 145.896 12.555C143.889 12.555 142.745 13.7112 142.694 15.5324L140.923 15.1999C140.974 13.3903 141.971 12.0601 143.433 11.4337C144.16 11.1244 144.983 10.9658 145.896 10.9658C149.527 10.9658 151.066 12.7368 151.066 16.4682V20.8994C151.066 22.0324 151.24 22.5351 151.889 22.5351C152.098 22.5351 152.319 22.4964 152.566 22.4113V23.9735C152.16 24.0586 151.777 24.0972 151.41 24.0972C150.091 24.0972 149.403 23.2968 149.318 22.0285C148.235 23.4438 146.82 24.1707 145.084 24.221C143.618 24.221 142.474 23.8652 141.65 23.1499C140.811 22.45 140.394 21.5143 140.394 20.3426C140.394 17.9685 142.18 16.762 145.513 16.762V16.7659ZM143.004 21.986C143.495 22.4423 144.26 22.6743 145.293 22.6743C146.611 22.6743 147.694 22.1561 148.32 21.406C148.947 20.6674 149.268 19.782 149.268 18.9081V18.2546H145.54C144.222 18.2546 143.274 18.5639 142.845 19.0163C142.416 19.4726 142.265 19.8902 142.265 20.3465C142.265 20.9884 142.513 21.5297 143.004 21.9821V21.986Z" fill="#1D1D1B"></path>
    <path d="M154.538 23.9774V11.2249H156.065L156.324 12.8141C156.657 12.3578 157.102 11.9402 157.666 11.5458C158.219 11.163 158.873 10.9658 159.6 10.9658C160.017 10.9658 160.361 11.0006 160.632 11.0896V12.787H159.719C157.318 12.787 156.321 14.1791 156.321 17.1449V23.9774H154.534H154.538Z" fill="#1D1D1B"></path>
    <path d="M162.801 12.7913C163.787 11.5733 165.114 10.9701 166.776 10.9701C167.859 10.9701 168.857 11.3026 169.51 11.7937C170.164 12.3003 170.519 12.6792 170.802 13.0852V6.22949H172.623V23.9778H171.084L170.802 22.0831C170.57 22.4659 170.175 22.8835 169.522 23.3746C168.868 23.8656 167.847 24.2252 166.776 24.2252C165.187 24.2252 163.884 23.6104 162.863 22.3808C161.842 21.1512 161.324 19.562 161.324 17.6054C161.324 15.6488 161.815 14.0132 162.801 12.7913ZM164.228 21.2943C164.928 22.2184 165.875 22.6708 167.097 22.6708C168.319 22.6708 169.201 22.2145 169.843 21.3059C170.484 20.3933 170.802 19.1637 170.802 17.6015C170.802 16.0394 170.481 14.8214 169.843 13.8972C169.205 12.9847 168.292 12.5323 167.097 12.5323C165.902 12.5323 164.932 12.9885 164.228 13.9127C163.528 14.8368 163.169 16.0664 163.169 17.6054C163.169 19.1444 163.524 20.374 164.228 21.2981V21.2943Z" fill="#1D1D1B"></path>
    <path d="M176.465 19.7201C176.477 20.2112 176.578 20.6442 176.883 21.2088C177.042 21.4911 177.239 21.7385 177.486 21.9473C177.966 22.3533 178.828 22.6743 179.922 22.6743C180.413 22.6743 180.858 22.6511 181.523 22.4539C181.856 22.3572 182.138 22.218 182.385 22.0595C182.876 21.7385 183.271 21.1237 183.271 20.3233C183.271 19.6466 182.962 19.1555 182.606 18.8694C182.42 18.7341 182.161 18.6103 181.829 18.4982C181.484 18.4015 181.187 18.3242 180.931 18.2894C180.672 18.2507 180.317 18.2043 179.872 18.1541C178.581 18.0187 177.68 17.8486 177.154 17.663C175.947 17.2338 175.271 16.4063 175.124 15.1883C175.1 15.0027 175.085 14.8055 175.085 14.5967C175.085 13.5643 175.53 12.702 176.415 11.9982C177.301 11.31 178.383 10.9658 179.675 10.9658C181.558 10.9658 183.074 11.5304 184.021 12.8102C184.489 13.4521 184.748 14.2255 184.783 15.1496L182.996 15.4822C182.946 13.5488 181.716 12.5512 179.698 12.5512C178.874 12.5512 178.198 12.7484 177.668 13.1544C177.138 13.5604 176.868 14.0399 176.868 14.5928C176.868 15.5054 177.37 15.9848 178.209 16.2555C178.813 16.4527 179.331 16.5262 180.205 16.6112C181.388 16.7466 182.173 16.9051 183.058 17.2647C183.487 17.4503 183.847 17.6591 184.118 17.9182C184.659 18.4209 185.042 19.2484 185.042 20.3194C185.042 21.5259 184.574 22.4732 183.638 23.1731C182.691 23.873 181.461 24.221 179.922 24.221C178.186 24.221 176.81 23.7028 175.998 22.9024C175.186 22.102 174.756 21.1314 174.706 20.0488L176.465 19.7162V19.7201Z" fill="#1D1D1B"></path>
    <path d="M185.112 6.6893V6.24463H188.298V6.6893H186.964V11.2482H186.466V6.6893H185.112ZM188.782 11.2482V6.24463H189.621L190.897 10.7184L192.173 6.24463H192.997V11.2482H192.482V6.89811L191.218 11.2482H190.553L189.304 6.89811V11.2482H188.778H188.782Z" fill="#1D1D1B"></path>
    <path d="M19.3452 7.29652L14.5234 0H0V7.81466H19.0746C17.6593 10.475 15.8613 12.9381 13.7269 15.1228C10.2198 18.7072 5.93929 21.3946 1.24122 22.9838L4.21473 30.2262C9.89496 28.2232 15.0648 24.9327 19.3143 20.5903C21.1278 18.7343 22.7441 16.7197 24.1516 14.5698L19.3452 7.29652Z" fill="#1D1D1B"></path>
  </g>
  <defs>
    <clipPath id="clip0_1607_14201">
      <rect width="193" height="30.2262" fill="white"></rect>
    </clipPath>
  </defs>
</svg>
